HIERARCHY
ROOT Hips
{
    OFFSET   0.000000   0.000000   0.000000
    CHANNELS 6 Xposition Yposition Zposition Zrotation Xrotation Yrotation
    JOINT Chest
    {
        OFFSET   0.000000   8.007230   0.000000
        CHANNELS 3 Zrotation Xrotation Yrotation
        JOINT Chest2
        {
            OFFSET   0.000000  22.077100   0.000000
            CHANNELS 3 Zrotation Xrotation Yrotation
            JOINT Neck
            {
                OFFSET   0.000000  23.254800  -0.000021
                CHANNELS 3 Zrotation Xrotation Yrotation
                JOINT Head
                {
                    OFFSET   0.000000  14.370000   1.956610
                    CHANNELS 3 Zrotation Xrotation Yrotation
                    End Site
                    {
                        OFFSET   0.000000  19.566000   0.000000
                    }
                }
            }
            JOINT LeftCollar
            {
                OFFSET   3.911900  19.017000  -0.467063
                CHANNELS 3 Zrotation Xrotation Yrotation
                JOINT LeftShoulder
                {
                    OFFSET  10.383700   0.000000   0.000000
                    CHANNELS 3 Zrotation Xrotation Yrotation
                    JOINT LeftElbow
                    {
                        OFFSET  26.662100   0.001529   0.000325
                        CHANNELS 3 Zrotation Xrotation Yrotation
                        JOINT LeftWrist
                        {
                            OFFSET  28.869000  -0.000011  -0.000096
                            CHANNELS 3 Zrotation Xrotation Yrotation
                            JOINT LeftFinger0
                            {
                                OFFSET   2.044650  -2.323460   3.252850
                                CHANNELS 3 Zrotation Xrotation Yrotation
                                JOINT LeftFinger01
                                {
                                    OFFSET   3.088130   0.000000   0.000000
                                    CHANNELS 3 Zrotation Xrotation Yrotation
                                    JOINT LeftFinger02
                                    {
                                        OFFSET   2.639460   0.000000   0.000000
                                        CHANNELS 3 Zrotation Xrotation Yrotation
                                        End Site
                                        {
                                            OFFSET   2.582190   0.000000   0.000000
                                        }
                                    }
                                }
                            }
                            JOINT LeftFinger1
                            {
                                OFFSET   8.364480   0.000000   3.252850
                                CHANNELS 3 Zrotation Xrotation Yrotation
                                JOINT LeftFinger11
                                {
                                    OFFSET   4.646930   0.000000   0.000000
                                    CHANNELS 3 Zrotation Xrotation Yrotation
                                    JOINT LeftFinger12
                                    {
                                        OFFSET   2.323460   0.000000   0.000000
                                        CHANNELS 3 Zrotation Xrotation Yrotation
                                        End Site
                                        {
                                            OFFSET   2.273050   0.000000   0.000000
                                        }
                                    }
                                }
                            }
                            JOINT LeftFinger2
                            {
                                OFFSET   8.364480   0.000016   1.078090
                                CHANNELS 3 Zrotation Xrotation Yrotation
                                JOINT LeftFinger21
                                {
                                    OFFSET   5.111620   0.000000   0.000000
                                    CHANNELS 3 Zrotation Xrotation Yrotation
                                    JOINT LeftFinger22
                                    {
                                        OFFSET   2.788160   0.000017   0.000000
                                        CHANNELS 3 Zrotation Xrotation Yrotation
                                        End Site
                                        {
                                            OFFSET   2.727660   0.000000   0.000000
                                        }
                                    }
                                }
                            }
                            JOINT LeftFinger3
                            {
                                OFFSET   7.899780   0.000015  -1.078090
                                CHANNELS 3 Zrotation Xrotation Yrotation
                                JOINT LeftFinger31
                                {
                                    OFFSET   4.646920   0.000000   0.000000
                                    CHANNELS 3 Zrotation Xrotation Yrotation
                                    JOINT LeftFinger32
                                    {
                                        OFFSET   2.323470   0.000000   0.000000
                                        CHANNELS 3 Zrotation Xrotation Yrotation
                                        End Site
                                        {
                                            OFFSET   2.273050   0.000000   0.000000
                                        }
                                    }
                                }
                            }
                            JOINT LeftFinger4
                            {
                                OFFSET   7.435090   0.000000  -3.252850
                                CHANNELS 3 Zrotation Xrotation Yrotation
                                JOINT LeftFinger41
                                {
                                    OFFSET   3.717550   0.000000   0.000000
                                    CHANNELS 3 Zrotation Xrotation Yrotation
                                    JOINT LeftFinger42
                                    {
                                        OFFSET   1.858760   0.000000   0.000000
                                        CHANNELS 3 Zrotation Xrotation Yrotation
                                        End Site
                                        {
                                            OFFSET   1.818440   0.000000   0.000000
                                        }
                                    }
                                }
                            }
                        }
                    }
                }
            }
            JOINT RightCollar
            {
                OFFSET  -3.911900  19.017000  -0.467062
                CHANNELS 3 Zrotation Xrotation Yrotation
                JOINT RightShoulder
                {
                    OFFSET -10.383700   0.000015   0.000000
                    CHANNELS 3 Zrotation Xrotation Yrotation
                    JOINT RightElbow
                    {
                        OFFSET -26.662100   0.001341   0.000385
                        CHANNELS 3 Zrotation Xrotation Yrotation
                        JOINT RightWrist
                        {
                            OFFSET -28.869000   0.000025  -0.000080
                            CHANNELS 3 Zrotation Xrotation Yrotation
                            JOINT RightFinger0
                            {
                                OFFSET  -2.044650  -2.323490   3.252850
                                CHANNELS 3 Zrotation Xrotation Yrotation
                                JOINT RightFinger01
                                {
                                    OFFSET  -3.088130   0.000000   0.000000
                                    CHANNELS 3 Zrotation Xrotation Yrotation
                                    JOINT RightFinger02
                                    {
                                        OFFSET  -2.639460   0.000000   0.000000
                                        CHANNELS 3 Zrotation Xrotation Yrotation
                                        End Site
                                        {
                                            OFFSET  -2.582190   0.000000   0.000000
                                        }
                                    }
                                }
                            }
                            JOINT RightFinger1
                            {
                                OFFSET  -8.364480   0.000000   3.252850
                                CHANNELS 3 Zrotation Xrotation Yrotation
                                JOINT RightFinger11
                                {
                                    OFFSET  -4.646930   0.000000   0.000000
                                    CHANNELS 3 Zrotation Xrotation Yrotation
                                    JOINT RightFinger12
                                    {
                                        OFFSET  -2.323470   0.000000   0.000000
                                        CHANNELS 3 Zrotation Xrotation Yrotation
                                        End Site
                                        {
                                            OFFSET  -2.273050   0.000000   0.000000
                                        }
                                    }
                                }
                            }
                            JOINT RightFinger2
                            {
                                OFFSET  -8.364480   0.000000   1.078090
                                CHANNELS 3 Zrotation Xrotation Yrotation
                                JOINT RightFinger21
                                {
                                    OFFSET  -5.111610   0.000000   0.000000
                                    CHANNELS 3 Zrotation Xrotation Yrotation
                                    JOINT RightFinger22
                                    {
                                        OFFSET  -2.788160   0.000000   0.000000
                                        CHANNELS 3 Zrotation Xrotation Yrotation
                                        End Site
                                        {
                                            OFFSET  -2.727660   0.000000   0.000000
                                        }
                                    }
                                }
                            }
                            JOINT RightFinger3
                            {
                                OFFSET  -7.899780   0.000000  -1.078090
                                CHANNELS 3 Zrotation Xrotation Yrotation
                                JOINT RightFinger31
                                {
                                    OFFSET  -4.646920   0.000000   0.000000
                                    CHANNELS 3 Zrotation Xrotation Yrotation
                                    JOINT RightFinger32
                                    {
                                        OFFSET  -2.323470   0.000000   0.000000
                                        CHANNELS 3 Zrotation Xrotation Yrotation
                                        End Site
                                        {
                                            OFFSET  -2.273050   0.000000   0.000000
                                        }
                                    }
                                }
                            }
                            JOINT RightFinger4
                            {
                                OFFSET  -7.435090   0.000000  -3.252850
                                CHANNELS 3 Zrotation Xrotation Yrotation
                                JOINT RightFinger41
                                {
                                    OFFSET  -3.717550   0.000000   0.000000
                                    CHANNELS 3 Zrotation Xrotation Yrotation
                                    JOINT RightFinger42
                                    {
                                        OFFSET  -1.858770   0.000000   0.000000
                                        CHANNELS 3 Zrotation Xrotation Yrotation
                                        End Site
                                        {
                                            OFFSET  -1.818440   0.000000   0.000000
                                        }
                                    }
                                }
                            }
                        }
                    }
                }
            }
        }
    }
    JOINT LeftHip
    {
        OFFSET   9.783010   0.000000   0.000000
        CHANNELS 3 Zrotation Xrotation Yrotation
        JOINT LeftKnee
        {
            OFFSET   0.000070 -41.789100   0.000028
            CHANNELS 3 Zrotation Xrotation Yrotation
            JOINT LeftAnkle
            {
                OFFSET   0.000087 -41.133200  -0.000100
                CHANNELS 3 Zrotation Xrotation Yrotation
                JOINT LeftToe
                {
                    OFFSET   0.000000  -6.358960  14.674500
                    CHANNELS 3 Zrotation Xrotation Yrotation
                    End Site
                    {
                        OFFSET   0.000000   0.000000   3.913200
                    }
                }
            }
        }
    }
    JOINT RightHip
    {
        OFFSET  -9.783020   0.000000   0.000000
        CHANNELS 3 Zrotation Xrotation Yrotation
        JOINT RightKnee
        {
            OFFSET   0.000044 -41.789100  -0.000870
            CHANNELS 3 Zrotation Xrotation Yrotation
            JOINT RightAnkle
            {
                OFFSET  -0.000090 -41.133200  -0.000245
                CHANNELS 3 Zrotation Xrotation Yrotation
                JOINT RightToe
                {
                    OFFSET   0.000000  -6.358960  14.674500
                    CHANNELS 3 Zrotation Xrotation Yrotation
                    End Site
                    {
                        OFFSET   0.000000   0.000000   3.913200
                    }
                }
            }
        }
    }
}
MOTION
Frames: 4
Frame Time:   0.016667
 -1.486870  89.267100  -2.542590  -8.154140 -17.299300 -17.487500   1.579710  14.266200  -4.130220   4.471760  28.364700  -9.122240   3.554330   2.703010  -0.169350   5.875360   5.417780  13.560900  -2.120030  -4.037710   0.202894 -53.926000  33.485700 -44.153300  26.349700   2.589970 -60.017300  26.726900  24.561300   0.954193  39.239200  38.017500 -72.842300 -33.852900  -0.005113  -0.003372 -11.926400  -0.002394   0.001853 -38.209600   4.084040  -5.169580 -31.413300  -0.001208  -0.003311 -21.989300   0.000487  -0.003762 -28.548800  -3.832440   7.004200 -41.422300  -0.004247  -0.001645 -27.587200  -0.001284   0.002347 -28.403000  -3.814730   7.013830 -37.943600  -0.002285  -0.006252 -25.270400   0.006817   0.007089 -34.677900  -4.562350   6.555210 -52.409300   0.003022  -0.006121 -34.904600   0.003159  -0.002043  10.641700  -2.614120   5.991460  77.738600  18.565100 -33.611000  -8.690770 -24.309600  58.440100 -12.855500  24.258300  14.354100 -34.399600  27.694200  43.820100  37.938300  -0.000488   0.000427  15.300500   0.001399   0.007885  88.996500   4.999370   0.084388  81.541800   0.000822   0.002684  61.156400   0.000420  -0.000142  89.000000  -0.004064  -0.003449  98.776700   0.006562   0.003959  74.082600   0.001141  -0.000334  88.996200  -5.002370  -0.087486 105.151000  -0.000061  -0.000514  78.860400   0.002114   0.003078  88.984600 -10.000400  -0.176315 110.000000  -0.008627   0.002519  80.000000  -0.001836   0.005107   3.288170  22.427200   9.195270   1.108550   0.273429  18.934200  -4.515300  -3.011640   4.865660   0.000000   0.000000   0.000000   6.477180  13.318300  -6.713740  -4.907670  11.162300   1.473610  -0.068140  -6.623730   5.053140   0.000000   0.000000   0.000000
 -1.497330  89.274100  -2.588420  -8.135960 -17.291200 -17.522800   1.549580  14.261800  -4.073750   4.395250  28.361400  -8.995290   3.567740   2.694690  -0.169357   5.896010   5.401820  13.641800  -2.098570  -4.041780   0.137634 -53.876400  33.553500 -44.191900  26.367000   2.621830 -60.022300  26.824000  24.628600   0.867934  39.186300  37.974100 -72.829100 -33.873900  -0.005080  -0.003329 -11.936900  -0.002394   0.001808 -38.160200   4.103250  -5.202850 -31.374600  -0.001285  -0.003420 -21.962200   0.000483  -0.003770 -28.548600  -3.833060   7.006830 -41.393600  -0.004251  -0.001623 -27.568200  -0.001316   0.002422 -28.404700  -3.815010   7.016350 -37.945600  -0.002280  -0.006228 -25.271700   0.006812   0.007231 -34.663000  -4.563020   6.558770 -52.387200   0.003081  -0.006103 -34.889900   0.003210  -0.001997  10.597100  -2.690550   5.855320  77.998000  18.481200 -33.584800  -8.732570 -24.641200  58.595400 -12.952100  24.106200  14.617100 -34.635500  27.871200  44.075100  37.553800  -0.000495   0.000461  14.947500   0.001398   0.008220  88.996500   4.999360   0.084544  81.543500   0.000821   0.002605  61.157600   0.000463  -0.000138  89.000000  -0.004099  -0.003527  98.822800   0.006463   0.003862  74.117100   0.001128  -0.000372  88.996200  -5.002340  -0.087483 105.391000   0.004845  -0.000163  79.127500   0.002176   0.003102  88.984600 -10.000300  -0.176310 110.000000  -0.008573   0.002570  80.000000  -0.001871   0.005148   3.272950  22.413100   9.159130   1.099720   0.266891  18.899100  -4.503940  -2.988440   4.969890   0.000000   0.000000  -0.000000   6.485840  13.293900  -6.757520  -4.953740  11.164200   1.547480  -0.107964  -6.635820   5.054980   0.000000   0.000000   0.000000
 -1.500470  89.279800  -2.641510  -8.145110 -17.264400 -17.610300   1.526820  14.247200  -4.022380   4.328710  28.336300  -8.879270   3.586820   2.693510  -0.169418   5.928770   5.397570  13.739600  -2.094360  -4.048620   0.128312 -53.864800  33.632100 -44.206700  26.414800   2.698030 -60.045100  26.924600  24.689900   0.820249  39.065300  37.880000 -72.786400 -33.921500  -0.005045  -0.003308 -11.960700  -0.002395   0.001762 -38.148500   4.109310  -5.212740 -31.365500  -0.001357  -0.003531 -21.955900   0.000476  -0.003778 -28.548600  -3.833150   7.007200 -41.389500  -0.004257  -0.001604 -27.565500  -0.001346   0.002496 -28.407700  -3.815040   7.016710 -37.959300  -0.002274  -0.006199 -25.280900   0.006808   0.007370 -34.660800  -4.563680   6.559290 -52.384000   0.003141  -0.006086 -34.887800   0.003259  -0.001952  10.588800  -2.805480   5.806960  78.078900  18.429800 -33.520600  -8.874630 -24.918200  58.792600 -12.997900  23.887300  14.838400 -34.997800  28.293600  44.411700  37.199300  -0.000502   0.000494  14.630500   0.001396   0.008534  88.996500   4.999350   0.084701  81.554100   0.000818   0.002525  61.165600   0.000497  -0.000133  89.000000  -0.004131  -0.003603  98.947100   0.006349   0.003762  74.210300   0.001115  -0.000414  88.996200  -5.002300  -0.087480 105.916000   0.013315   0.000184  79.544400   0.002237   0.003125  88.984600 -10.000300  -0.176305 110.000000  -0.008516   0.002620  80.000000  -0.001906   0.005188   3.277910  22.387300   9.120890   1.080440   0.250606  18.875300  -4.469560  -2.969950   5.125410   0.000000   0.000000   0.000000   6.495390  13.271300  -6.800490  -4.987250  11.164100   1.633500  -0.127657  -6.637420   5.067000   0.000000   0.000000   0.000000
 -1.498860  89.284600  -2.692260  -8.182250 -17.213400 -17.740100   1.515200  14.220600  -3.984280   4.284690  28.286300  -8.792660   3.595960   2.705330  -0.169589   5.950860   5.420820  13.877200  -2.130990  -4.087290   0.233699 -53.914100  33.759000 -44.193000  26.500800   2.812860 -60.109400  26.949800  24.715200   0.825572  38.873300  37.720600 -72.682300 -33.998000  -0.005013  -0.003358 -11.999000  -0.002386   0.001715 -38.167400   4.097750  -5.194700 -31.380000  -0.001423  -0.003649 -21.966100   0.000468  -0.003769 -28.549200  -3.831250   7.002650 -41.443100  -0.004259  -0.001581 -27.601200  -0.001362   0.002561 -28.410000  -3.814990   7.012030 -38.020700  -0.002276  -0.006179 -25.321800   0.006812   0.007508 -34.701800  -4.564390   6.551320 -52.445000   0.003185  -0.006071 -34.928400   0.003312  -0.001908  10.627200  -2.969850   5.899470  77.795400  18.564300 -32.862800  -9.101870 -25.155100  58.992000 -12.938100  23.761100  15.001700 -35.320700  28.827000  44.808600  36.892600  -0.000501   0.000485  14.361400   0.001398   0.008814  88.996500   4.999340   0.084854  81.588300   0.000802   0.002449  61.191200   0.000524  -0.000131  89.000000  -0.004161  -0.003678  99.164700   0.006220   0.003656  74.373500   0.001104  -0.000462  88.996200  -5.002270  -0.087478 106.609000   0.022661   0.000527  79.876400   0.002301   0.003148  88.984600 -10.000200  -0.176307 110.000000  -0.008455   0.002667  80.000000  -0.001940   0.005226   3.307470  22.363200   9.089510   1.052040   0.222846  18.875400  -4.410360  -2.966550   5.283950  -0.000000   0.000000  -0.000000   6.503730  13.255700  -6.833890  -4.991880  11.123100   1.703000  -0.118100  -6.612140   5.153390   0.000000   0.000000   0.000000
